HIERARCHY
ROOT Hips
{
	OFFSET 0.000000 100.481300 0.000000
	CHANNELS 6 Xposition Yposition Zposition Xrotation Yrotation Zrotation 
	JOINT Spine
	{
		OFFSET -0.279200 12.230698 -2.892100
		CHANNELS 3 Xrotation Yrotation Zrotation
		JOINT Spine1
		{
			OFFSET -0.232667 10.192268 -1.242267
			CHANNELS 3 Xrotation Yrotation Zrotation
			JOINT Spine1_split
			{
				OFFSET -0.232667 10.192268 -1.242267
				CHANNELS 3 Xrotation Yrotation Zrotation
				JOINT Spine2
				{
					OFFSET -0.232667 10.192268 -1.242267
					CHANNELS 3 Xrotation Yrotation Zrotation
					JOINT Neck
					{
						OFFSET -0.418800 17.814194 8.416900
						CHANNELS 3 Xrotation Yrotation Zrotation
						JOINT Head
						{
							OFFSET 0.000000 7.031097 3.806800
							CHANNELS 3 Xrotation Yrotation Zrotation
							JOINT HeadTop_End
							{
								OFFSET 0.000000 24.646606 12.978600
								CHANNELS 3 Xrotation Yrotation Zrotation
								End Site
								{
									OFFSET 0.000000 0.000000 0.000000
								}
							}
						}
					}
					JOINT LeftShoulder
					{
						OFFSET 8.476499 7.247704 -3.868750
						CHANNELS 3 Xrotation Yrotation Zrotation
						JOINT LeftShoulder_split
						{
							OFFSET 8.476499 7.247704 -3.868750
							CHANNELS 3 Xrotation Yrotation Zrotation
							JOINT LeftArm
							{
								OFFSET 9.308998 -2.777710 0.208600
								CHANNELS 3 Xrotation Yrotation Zrotation
								JOINT LeftForeArm
								{
									OFFSET 29.972298 0.000000 0.000000
									CHANNELS 3 Xrotation Yrotation Zrotation
									JOINT LeftHand
									{
										OFFSET 26.026505 0.000000 0.000000
										CHANNELS 3 Xrotation Yrotation Zrotation
										JOINT LeftHandThumb1
										{
											OFFSET 12.240501 -7.147949 9.207150
											CHANNELS 3 Xrotation Yrotation Zrotation
											JOINT LeftHandThumb2
											{
												OFFSET 4.138618 -2.389435 2.389433
												CHANNELS 3 Xrotation Yrotation Zrotation
												JOINT LeftHandThumb3
												{
													OFFSET 2.726913 -1.574387 1.574386
													CHANNELS 3 Xrotation Yrotation Zrotation
													JOINT LeftHandThumb4
													{
														OFFSET 3.941010 -2.275345 2.275342
														CHANNELS 3 Xrotation Yrotation Zrotation
														End Site
														{
															OFFSET 0.000000 0.000000 0.000000
														}
													}
												}
											}
										}
										JOINT LeftHandIndex1
										{
											OFFSET 24.424698 -1.985611 5.953459
											CHANNELS 3 Xrotation Yrotation Zrotation
											JOINT LeftHandIndex2
											{
												OFFSET 6.426697 0.000000 0.000000
												CHANNELS 3 Xrotation Yrotation Zrotation
												JOINT LeftHandIndex3
												{
													OFFSET 5.337898 0.000000 0.000000
													CHANNELS 3 Xrotation Yrotation Zrotation
													JOINT LeftHandIndex4
													{
														OFFSET 4.409401 0.000000 0.000000
														CHANNELS 3 Xrotation Yrotation Zrotation
														End Site
														{
															OFFSET 0.000000 0.000000 0.000000
														}
													}
												}
											}
										}
										JOINT LeftHandMiddle1
										{
											OFFSET 23.810104 0.000000 0.000000
											CHANNELS 3 Xrotation Yrotation Zrotation
											JOINT LeftHandMiddle2
											{
												OFFSET 7.176498 0.000000 0.000000
												CHANNELS 3 Xrotation Yrotation Zrotation
												JOINT LeftHandMiddle3
												{
													OFFSET 6.774902 0.000000 0.000000
													CHANNELS 3 Xrotation Yrotation Zrotation
													JOINT LeftHandMiddle4
													{
														OFFSET 5.403328 0.000000 0.000000
														CHANNELS 3 Xrotation Yrotation Zrotation
														End Site
														{
															OFFSET 0.000000 0.000000 0.000000
														}
													}
												}
											}
										}
										JOINT LeftHandRing1
										{
											OFFSET 22.908401 -0.839279 -6.020567
											CHANNELS 3 Xrotation Yrotation Zrotation
											JOINT LeftHandRing2
											{
												OFFSET 6.337502 0.000000 0.000000
												CHANNELS 3 Xrotation Yrotation Zrotation
												JOINT LeftHandRing3
												{
													OFFSET 5.779297 0.000000 0.000000
													CHANNELS 3 Xrotation Yrotation Zrotation
													JOINT LeftHandRing4
													{
														OFFSET 4.965698 0.000000 0.000000
														CHANNELS 3 Xrotation Yrotation Zrotation
														End Site
														{
															OFFSET 0.000000 0.000000 0.000000
														}
													}
												}
											}
										}
										JOINT LeftHandPinky1
										{
											OFFSET 20.037003 -1.530319 -10.950146
											CHANNELS 3 Xrotation Yrotation Zrotation
											JOINT LeftHandPinky2
											{
												OFFSET 5.254700 0.000000 0.000000
												CHANNELS 3 Xrotation Yrotation Zrotation
												JOINT LeftHandPinky3
												{
													OFFSET 4.810204 0.000000 0.000000
													CHANNELS 3 Xrotation Yrotation Zrotation
													JOINT LeftHandPinky4
													{
														OFFSET 3.647202 0.000000 0.000000
														CHANNELS 3 Xrotation Yrotation Zrotation
														End Site
														{
															OFFSET 0.000000 0.000000 0.000000
														}
													}
												}
											}
										}
									}
								}
							}
						}
					}
					JOINT RightShoulder
					{
						OFFSET -7.570500 7.247704 -3.868750
						CHANNELS 3 Xrotation Yrotation Zrotation
						JOINT RightShoulder_split
						{
							OFFSET -7.570500 7.247704 -3.868750
							CHANNELS 3 Xrotation Yrotation Zrotation
							JOINT RightArm
							{
								OFFSET -9.308998 -2.777710 0.208500
								CHANNELS 3 Xrotation Yrotation Zrotation
								JOINT RightForeArm
								{
									OFFSET -29.972300 0.000000 0.000000
									CHANNELS 3 Xrotation Yrotation Zrotation
									JOINT RightHand
									{
										OFFSET -26.026505 0.000000 0.000000
										CHANNELS 3 Xrotation Yrotation Zrotation
										JOINT RightHandThumb1
										{
											OFFSET -12.240601 -7.148026 9.207092
											CHANNELS 3 Xrotation Yrotation Zrotation
											JOINT RightHandThumb2
											{
												OFFSET -4.138618 -2.389435 2.389433
												CHANNELS 3 Xrotation Yrotation Zrotation
												JOINT RightHandThumb3
												{
													OFFSET -2.726974 -1.574417 1.574421
													CHANNELS 3 Xrotation Yrotation Zrotation
													JOINT RightHandThumb4
													{
														OFFSET -3.941010 -2.275345 2.275343
														CHANNELS 3 Xrotation Yrotation Zrotation
														End Site
														{
															OFFSET 0.000000 0.000000 0.000000
														}
													}
												}
											}
										}
										JOINT RightHandIndex1
										{
											OFFSET -24.424698 -1.985657 5.953444
											CHANNELS 3 Xrotation Yrotation Zrotation
											JOINT RightHandIndex2
											{
												OFFSET -6.426697 0.000000 0.000000
												CHANNELS 3 Xrotation Yrotation Zrotation
												JOINT RightHandIndex3
												{
													OFFSET -5.337898 0.000000 0.000000
													CHANNELS 3 Xrotation Yrotation Zrotation
													JOINT RightHandIndex4
													{
														OFFSET -4.409401 0.000000 0.000000
														CHANNELS 3 Xrotation Yrotation Zrotation
														End Site
														{
															OFFSET 0.000000 0.000000 0.000000
														}
													}
												}
											}
										}
										JOINT RightHandMiddle1
										{
											OFFSET -23.810097 0.000000 0.000000
											CHANNELS 3 Xrotation Yrotation Zrotation
											JOINT RightHandMiddle2
											{
												OFFSET -7.176498 0.000000 0.000000
												CHANNELS 3 Xrotation Yrotation Zrotation
												JOINT RightHandMiddle3
												{
													OFFSET -6.774902 0.000000 0.000000
													CHANNELS 3 Xrotation Yrotation Zrotation
													JOINT RightHandMiddle4
													{
														OFFSET -5.403328 0.000000 0.000000
														CHANNELS 3 Xrotation Yrotation Zrotation
														End Site
														{
															OFFSET 0.000000 0.000000 0.000000
														}
													}
												}
											}
										}
										JOINT RightHandRing1
										{
											OFFSET -22.908302 -0.839325 -6.020576
											CHANNELS 3 Xrotation Yrotation Zrotation
											JOINT RightHandRing2
											{
												OFFSET -6.337502 0.000000 0.000000
												CHANNELS 3 Xrotation Yrotation Zrotation
												JOINT RightHandRing3
												{
													OFFSET -5.779297 0.000000 0.000000
													CHANNELS 3 Xrotation Yrotation Zrotation
													JOINT RightHandRing4
													{
														OFFSET -4.965698 0.000000 0.000000
														CHANNELS 3 Xrotation Yrotation Zrotation
														End Site
														{
															OFFSET 0.000000 0.000000 0.000000
														}
													}
												}
											}
										}
										JOINT RightHandPinky1
										{
											OFFSET -20.037003 -1.530334 -10.950259
											CHANNELS 3 Xrotation Yrotation Zrotation
											JOINT RightHandPinky2
											{
												OFFSET -5.254700 0.000000 0.000000
												CHANNELS 3 Xrotation Yrotation Zrotation
												JOINT RightHandPinky3
												{
													OFFSET -4.810204 0.000000 0.000000
													CHANNELS 3 Xrotation Yrotation Zrotation
													JOINT RightHandPinky4
													{
														OFFSET -3.647202 0.000000 0.000000
														CHANNELS 3 Xrotation Yrotation Zrotation
														End Site
														{
															OFFSET 0.000000 0.000000 0.000000
														}
													}
												}
											}
										}
									}
								}
							}
						}
					}
				}
			}
		}
	}
	JOINT LeftUpLeg
	{
		OFFSET 15.427100 -6.655098 0.678600
		CHANNELS 3 Xrotation Yrotation Zrotation
		JOINT LeftLeg
		{
			OFFSET 4.081073 -39.591068 13.024000
			CHANNELS 3 Xrotation Yrotation Zrotation
			JOINT LeftFoot
			{
				OFFSET -4.081074 -37.707932 -15.979700
				CHANNELS 3 Xrotation Yrotation Zrotation
				JOINT LeftToeBase
				{
					OFFSET 5.346399 -15.068900 20.645000
					CHANNELS 3 Xrotation Yrotation Zrotation
					JOINT LeftToe_End
					{
						OFFSET 2.754700 0.931300 11.300900
						CHANNELS 3 Xrotation Yrotation Zrotation
						End Site
						{
							OFFSET 0.000000 0.000000 0.000000
						}
					}
				}
			}
		}
	}
	JOINT RightUpLeg
	{
		OFFSET -15.569500 -6.655098 0.678600
		CHANNELS 3 Xrotation Yrotation Zrotation
		JOINT RightLeg
		{
			OFFSET -4.081825 -39.591045 13.023800
			CHANNELS 3 Xrotation Yrotation Zrotation
			JOINT RightFoot
			{
				OFFSET 4.081824 -37.707954 -15.979600
				CHANNELS 3 Xrotation Yrotation Zrotation
				JOINT RightToeBase
				{
					OFFSET -5.346400 -15.068900 20.645000
					CHANNELS 3 Xrotation Yrotation Zrotation
					JOINT RightToe_End
					{
						OFFSET -2.754700 0.931300 11.300900
						CHANNELS 3 Xrotation Yrotation Zrotation
						End Site
						{
							OFFSET 0.000000 0.000000 0.000000
						}
					}
				}
			}
		}
	}
}
MOTION
Frames: 4
Frame Time: 0.016667
0.115628 95.043274 -1.468619 1.892529 0.269442 -0.156933 2.071388 0.293210 0.830839 3.430437 -0.015269 0.185037 0.000000 0.000000 0.000000 3.430499 0.005499 0.178976 -3.527214 -0.012947 -0.020364 -2.723222 -0.263049 0.289010 0.000001 0.000000 0.000000 0.742836 8.952359 -13.053725 0.000000 0.000000 0.000000 10.740851 -6.252035 -54.033855 0.000004 -33.005902 -0.000002 3.135488 -1.542045 -4.245097 -3.935405 -5.157140 8.901471 21.369772 38.859111 0.033475 -0.468183 -2.423305 17.081267 -0.000002 -0.000001 0.000001 1.240180 5.550744 -31.144659 2.582851 4.855848 -55.996999 -0.000001 -0.001543 0.014999 0.000000 0.000002 -0.000001 2.320326 7.123387 -41.324704 3.978842 5.544425 -71.308042 0.000000 -0.000585 0.005644 -0.000000 0.000000 0.000000 2.315926 7.119637 -41.286076 3.978837 5.544428 -71.308022 -0.000000 -0.000578 0.005643 0.000000 0.000001 0.000000 2.340557 7.146605 -41.312140 3.983161 5.545885 -71.352739 0.000000 -0.000580 0.005645 -0.000000 -0.000001 -0.000000 1.078069 -8.352866 11.371666 0.000000 0.000000 0.000000 3.407872 18.890953 61.317299 -0.000002 23.538785 0.000012 1.182685 -2.960233 -1.406687 -5.113516 0.222618 -17.981445 16.974268 -29.891254 7.722265 -6.335534 -28.130457 -4.848423 -0.000000 0.000002 -0.000004 0.293268 -3.768017 14.855202 3.775963 -4.573215 79.081310 0.158027 1.204119 -14.952701 -0.000000 0.000000 0.000001 1.476682 -5.897271 31.989662 4.654523 -4.657165 89.967382 0.158025 1.204125 -14.952696 0.000000 -0.000000 -0.000000 1.427409 -5.817111 32.033092 4.654579 -4.657171 89.968071 0.158026 1.204127 -14.952703 -0.000000 -0.000002 -0.000000 1.424027 -5.850158 32.030616 4.654592 -4.657181 89.968181 0.158024 1.204120 -14.952696 -0.000000 -0.000001 -0.000000 -6.323700 -4.996121 10.917985 13.664147 -0.620120 -1.841749 -6.710745 15.137099 -9.538754 -0.022026 0.000004 0.000000 0.000000 -0.000001 -0.000000 -5.128151 -4.991209 -9.924193 14.352898 0.879721 -0.044537 -9.553293 -12.108432 8.706094 0.109671 -0.000004 -0.000002 0.000000 -0.000002 -0.000000 
0.736661 94.844955 -1.450591 1.971308 0.169148 -0.290818 2.228262 0.159340 0.942978 3.366062 -0.047926 0.178463 0.000000 0.000000 0.000000 3.366262 -0.027679 0.173012 -3.461163 -0.005422 -0.020364 -2.503164 -0.228412 0.394052 0.000000 0.000000 -0.000000 0.736159 8.634890 -13.051694 0.000000 0.000000 0.000000 10.465394 -6.468719 -54.238573 -0.000000 -32.925415 -0.000001 3.835491 -1.562229 -4.453628 -3.935404 -5.157136 8.901483 21.369784 38.859111 0.033471 -0.468204 -2.423308 17.081256 -0.000001 0.000001 0.000000 1.240178 5.550745 -31.144662 2.582852 4.855850 -55.996988 0.000152 0.042013 -0.410018 -0.000001 -0.000001 -0.000001 2.320329 7.123387 -41.324711 3.979599 5.544678 -71.315918 0.000194 0.047581 -0.464336 0.000000 0.000002 0.000001 2.324898 7.126367 -41.393815 3.982364 5.545609 -71.344584 0.000816 0.097855 -0.954951 0.000000 -0.000001 -0.000000 2.340557 7.146600 -41.312140 3.983165 5.545889 -71.352746 0.001090 0.113153 -1.104275 -0.000000 0.000000 -0.000000 1.102347 -8.042774 11.607334 0.000000 0.000000 0.000000 3.214941 18.780584 60.984389 0.000004 23.113683 -0.000003 2.062544 -2.669419 -0.892125 -5.113513 0.222627 -17.981443 16.974272 -29.891278 7.722241 -6.335533 -28.130453 -4.848420 -0.000001 0.000003 -0.000001 0.293273 -3.768016 14.855175 3.760207 -4.570160 78.883528 0.143300 1.147584 -14.235145 -0.000002 0.000000 -0.000002 1.476688 -5.897273 31.989662 4.659792 -4.657165 90.032302 0.149953 1.173492 -14.563611 -0.000000 -0.000003 0.000000 1.436524 -5.825508 32.180515 4.654575 -4.657172 89.968044 0.142514 1.144474 -14.195902 -0.000000 -0.000000 0.000000 1.432359 -5.863713 32.225502 4.654595 -4.657176 89.968174 0.141022 1.138558 -14.120818 -0.000000 -0.000002 0.000000 -7.009560 -4.657515 10.743452 14.604901 -0.777852 -1.877127 -7.329983 14.077621 -9.120852 -0.014345 0.000001 -0.000001 -0.000000 -0.000001 -0.000000 -5.344928 -4.913971 -10.281806 14.520337 1.034877 -0.003050 -9.477652 -12.174904 9.128942 0.103736 -0.000018 -0.000002 0.000000 0.000000 0.000000 
1.355051 94.624443 -1.459357 2.047183 0.071412 -0.411247 2.391663 0.027872 1.037371 3.299831 -0.080446 0.171142 0.000000 0.000000 0.000000 3.300179 -0.060740 0.166296 -3.396151 0.002399 -0.020364 -2.286795 -0.182576 0.481419 0.000000 0.000000 0.000000 0.729729 8.312047 -13.050097 0.000000 0.000000 0.000000 10.192952 -6.689422 -54.453045 -0.000003 -32.826541 -0.000011 4.533532 -1.587746 -4.670900 -3.935402 -5.157131 8.901492 21.369797 38.859111 0.033461 -0.468192 -2.423300 17.081267 -0.000001 0.000001 0.000002 1.240183 5.550748 -31.144638 2.582853 4.855852 -55.996992 0.000633 0.086119 -0.840417 -0.000000 0.000001 0.000001 2.320323 7.123396 -41.324697 3.980455 5.544967 -71.324742 0.000792 0.096391 -0.940716 0.000000 -0.000001 0.000000 2.334065 7.133221 -41.503726 3.985967 5.546821 -71.381815 0.003333 0.197800 -1.930549 -0.000000 -0.000004 0.000000 2.340560 7.146606 -41.312133 3.983165 5.545885 -71.352739 0.004437 0.228233 -2.227742 -0.000000 0.000001 -0.000001 1.124653 -7.724696 11.847043 0.000000 0.000000 0.000000 3.010279 18.678486 60.639772 -0.000003 22.673023 0.000001 2.953362 -2.354774 -0.380940 -5.113520 0.222621 -17.981429 16.974258 -29.891264 7.722247 -6.335548 -28.130453 -4.848449 -0.000000 0.000001 -0.000000 0.293269 -3.768015 14.855202 3.744293 -4.567018 78.683793 0.129091 1.090054 -13.507510 -0.000000 -0.000000 0.000001 1.476685 -5.897268 31.989662 4.665314 -4.657164 90.100222 0.142060 1.142685 -14.173045 0.000000 0.000000 0.000000 1.445849 -5.834052 32.330922 4.654582 -4.657169 89.968071 0.127648 1.084033 -13.431492 -0.000000 0.000000 0.000000 1.440915 -5.877512 32.424267 4.654595 -4.657175 89.968181 0.124814 1.072092 -13.280770 0.000000 -0.000001 0.000000 -7.743058 -4.303621 10.583213 15.564080 -0.989210 -1.943807 -7.923193 12.937356 -8.687091 -0.007613 0.000000 -0.000002 0.000000 0.000001 0.000000 -5.616238 -4.829996 -10.660836 14.759069 1.193317 0.042031 -9.414211 -12.239197 9.551195 0.092233 0.000003 -0.000004 -0.000000 -0.000001 -0.000000 
1.966412 94.396149 -1.489174 2.120657 -0.025005 -0.504717 2.560329 -0.101455 1.101269 3.232089 -0.112856 0.163210 0.000000 0.000000 0.000000 3.232567 -0.093704 0.158966 -3.332028 0.010478 -0.020364 -2.078846 -0.125606 0.557600 -0.000000 0.000000 0.000000 0.723528 7.984863 -13.048746 0.000000 0.000000 0.000000 9.926434 -6.917189 -54.675285 0.000005 -32.712873 0.000014 5.229925 -1.618796 -4.895270 -3.935396 -5.157142 8.901483 21.369765 38.859125 0.033498 -0.468191 -2.423299 17.081256 0.000000 0.000001 0.000001 1.240183 5.550745 -31.144638 2.582852 4.855842 -55.997016 0.001454 0.130703 -1.275570 0.000001 0.000000 0.000001 2.320322 7.123391 -41.324697 3.981379 5.545283 -71.334332 0.001810 0.145780 -1.422711 -0.000000 -0.000002 0.000000 2.343399 7.140159 -41.615574 3.989626 5.548049 -71.419641 0.007619 0.299027 -2.919246 -0.000000 -0.000000 -0.000000 2.340554 7.146600 -41.312140 3.983168 5.545887 -71.352732 0.010112 0.344440 -3.363187 -0.000001 -0.000000 -0.000000 1.144754 -7.400145 12.089763 0.000000 0.000000 0.000000 2.794427 18.583889 60.286535 0.000000 22.219835 -0.000004 3.851653 -2.017856 0.124938 -5.113523 0.222622 -17.981448 16.974268 -29.891261 7.722251 -6.335553 -28.130462 -4.848435 -0.000006 0.000001 0.000002 0.293270 -3.768019 14.855177 3.728250 -4.563784 78.482336 0.115458 1.031651 -12.771023 0.000001 0.000001 0.000001 1.476684 -5.897274 31.989652 4.671021 -4.657153 90.170443 0.134347 1.111700 -13.780997 -0.000000 -0.000001 -0.000000 1.455362 -5.842723 32.483902 4.654582 -4.657163 89.968071 0.113472 1.022859 -12.660259 -0.000000 -0.000001 0.000000 1.449675 -5.891542 32.626376 4.654590 -4.657173 89.968201 0.109460 1.004821 -12.433401 0.000000 0.000002 -0.000000 -8.491503 -3.935990 10.415896 16.497125 -1.228567 -2.024964 -8.472571 11.739829 -8.247752 -0.002042 0.000001 -0.000001 0.000000 -0.000000 0.000000 -5.923698 -4.738007 -11.068726 15.036433 1.352946 0.088546 -9.351073 -12.300128 9.971426 0.074550 0.000007 -0.000002 0.000000 -0.000000 0.000000 
